<?xml version="1.0" encoding="utf-8"?>
<!-- Generator: Adobe Illustrator 21.1.0, SVG Export Plug-In . SVG Version: 6.00 Build 0)  -->
<svg version="1.1" id="Aspose.HTML" xmlns="http://www.w3.org/2000/svg" xmlns:xlink="http://www.w3.org/1999/xlink" x="0px"
	 y="0px" viewBox="0 0 277 277" style="enable-background:new 0 0 277 277;" xml:space="preserve">
<style type="text/css">
	.st0{fill:#FFFFFF;}
	.st1{fill:#FFCD38;}
	.st2{fill:#672572;}
</style>
<g id="_x2E_NET">
	<path id="XMLID_8_" class="st0" d="M156.3,113.6c-22.5,0-41.6,7.9-57.3,23.7c-15.8,15.7-23.7,34.9-23.7,57.4s7.9,41.6,23.7,57.2
		c5.8,5.9,12.1,10.7,18.9,14.5H19.4c-1.6-0.1-3.1-0.5-4.6-1.3c-2.5-1.2-3.7-3.5-3.7-6.9V57.8c0.2-1.8,0.6-3.3,1.2-4.6
		c1.3-2.5,3.6-3.7,7.1-3.7h200.3l1.3,0.3c1.2,0.2,2.2,0.5,3.1,0.9c2.6,1.2,3.8,3.5,3.8,7.1v98.5c-3.7-6.8-8.5-13.1-14.4-19
		C197.6,121.5,178.5,113.6,156.3,113.6z"/>
	<g>
		<path id="XMLID_2_" class="st1" d="M156.3,113.6c22.2,0,41.3,7.9,57.2,23.7c5.9,5.9,10.7,12.2,14.4,19V57.8c0-3.5-1.3-5.9-3.8-7.1
			c-0.9-0.4-1.9-0.7-3.1-0.9l-1.3-0.3H19.4c-3.4,0-5.8,1.2-7.1,3.7c-0.6,1.3-1,2.8-1.2,4.6v200.3c0,3.4,1.2,5.8,3.7,6.9
			c1.5,0.8,3,1.2,4.6,1.3h98.5c-6.8-3.7-13.1-8.5-18.9-14.5c-15.8-15.6-23.7-34.7-23.7-57.2s7.9-41.6,23.7-57.4
			C114.7,121.5,133.8,113.6,156.3,113.6z M225,40.4c2.2,0.4,3.8,0.9,5,1.6c4.9,2.4,7.4,6.6,7.4,12.8v139.8c0,22.4-8,41.5-23.9,57.2
			c-15.9,15.9-35,23.9-57.2,23.9H16.4c-2.4,0-4.8-0.6-7.4-1.8c-4.9-2.6-7.4-6.9-7.4-13V54.9c0-2.5,0.6-4.9,1.9-7.4
			c2.4-4.9,6.6-7.4,12.8-7.4h206.2L225,40.4z"/>
		<g>
			<path class="st1" d="M68.1,121.3h-8.4v-23H36.2v23h-8.4V70.2h8.4v20.9h23.6V70.2h8.4L68.1,121.3
				C68.1,121.3,68.1,121.3,68.1,121.3z"/>
		</g>
	</g>
	<g id="shape">
		<path class="st0" d="M93.8,194.6l41.3-21.3v6.1l-34.8,17.5v0.2l34.8,17.5v6.1l-41.3-21.3V194.6z"/>
		<path class="st0" d="M140.9,224.2l24.8-64.6h6.1l-24.9,64.6H140.9z"/>
		<path class="st0" d="M218.8,199.5l-41.3,21.2v-6.1l35.1-17.5v-0.2l-35.1-17.5v-6.1l41.3,21.2V199.5z"/>
	</g>
</g>
<g id="prefix__Python_via__NET">
	<circle class="st2" cx="218.4" cy="58.8" r="55"/>
	<g id="prefix__XMLID_2_">
		<path id="prefix__XMLID_3_" class="st0" d="M231.9,44.9c0.5-0.4,0.8-1,0.8-1.8c0-0.7-0.2-1.2-0.6-1.6c-0.3-0.3-0.9-0.7-1.6-0.9
			c-0.7-0.3-1.1-0.5-1.3-0.7c-0.3-0.2-0.3-0.5-0.3-0.9c0-0.3,0.2-0.7,0.4-0.9c0.3-0.3,0.7-0.3,1.1-0.3c0.8,0,1.4,0.2,2,0.6V37
			c-0.5-0.3-1.2-0.4-1.9-0.4c-0.9,0-1.6,0.3-2.2,0.7c-0.6,0.5-0.9,1.1-0.9,1.8s0.2,1.2,0.5,1.5s0.9,0.7,1.5,0.9
			c0.7,0.3,1.2,0.6,1.4,0.8c0.3,0.3,0.3,0.5,0.3,0.9c0,0.8-0.5,1.2-1.6,1.2c-0.9,0-1.5-0.3-2.2-0.9v1.4c0.6,0.3,1.4,0.5,2.1,0.5
			C230.5,45.7,231.2,45.4,231.9,44.9z"/>
		<path id="prefix__XMLID_29_" class="st0" d="M244.8,45.4h1.4V38h2v-1.2h-2v-1.4c0-1.2,0.5-1.8,1.4-1.8c0.3,0,0.7,0.1,0.9,0.3v-1.3
			c-0.3-0.1-0.6-0.2-1-0.2c-0.8,0-1.4,0.3-1.9,0.7c-0.6,0.5-0.9,1.3-0.9,2.2v1.4h-1.3v1.2h1.4L244.8,45.4L244.8,45.4z"/>
		<path id="prefix__XMLID_30_" class="st0" d="M200.9,34.6c0.3,0,0.4-0.1,0.7-0.3c0.2-0.2,0.3-0.4,0.3-0.7s-0.1-0.4-0.3-0.6
			c-0.2-0.2-0.4-0.3-0.7-0.3s-0.4,0.1-0.6,0.3c-0.2,0.2-0.3,0.4-0.3,0.6c0,0.3,0.1,0.5,0.3,0.7S200.6,34.6,200.9,34.6z"/>
		<path id="prefix__XMLID_31_" class="st0" d="M207.8,45.7c0.9,0,1.7-0.2,2.4-0.6v-1.3c-0.7,0.5-1.4,0.8-2.1,0.8
			c-0.9,0-1.6-0.3-2.1-0.9c-0.5-0.6-0.8-1.4-0.8-2.4s0.3-1.9,0.9-2.5c0.5-0.6,1.3-0.9,2.1-0.9s1.4,0.3,2,0.7v-1.4
			c-0.6-0.3-1.3-0.4-2-0.4c-1.4,0-2.5,0.4-3.2,1.3c-0.9,0.9-1.2,2-1.2,3.4c0,1.3,0.3,2.3,1.1,3.1C205.5,45.2,206.5,45.7,207.8,45.7
			L207.8,45.7z"/>
		<path id="prefix__XMLID_34_" class="st0" d="M256.8,37.5h0.3c0.2,0,0.3,0.2,0.5,0.5l0.3,0.7h0.5l-0.4-0.8
			c-0.2-0.3-0.3-0.5-0.5-0.5c0.3-0.1,0.4-0.2,0.5-0.3c0.2-0.2,0.2-0.3,0.2-0.5c0-0.3-0.1-0.4-0.3-0.5c-0.2-0.2-0.4-0.3-0.9-0.3h-0.9
			v2.9h0.4v-1.2L256.8,37.5L256.8,37.5z M256.8,36.1h0.3c0.3,0,0.4,0.1,0.5,0.2c0.1,0.1,0.2,0.2,0.2,0.3c0,0.3-0.2,0.5-0.6,0.5h-0.4
			V36.1z"/>
		<path id="prefix__XMLID_35_" class="st0" d="M250.4,43.1c0,1.7,0.8,2.6,2.2,2.6c0.5,0,0.9-0.1,1.3-0.3v-1.2
			c-0.3,0.2-0.5,0.3-0.9,0.3s-0.8-0.1-1-0.3c-0.2-0.3-0.3-0.7-0.3-1.2v-4.8h2.1v-1.3h-2.1v-2.6c-0.5,0.2-0.9,0.3-1.4,0.4v2.1h-1.4
			V38h1.4L250.4,43.1L250.4,43.1z"/>
		<path id="prefix__XMLID_40_" class="st0" d="M257.2,39.5c0.7,0,1.2-0.3,1.6-0.7s0.7-0.9,0.7-1.6c0-0.7-0.3-1.2-0.7-1.6
			c-0.4-0.4-0.9-0.6-1.6-0.6s-1.2,0.3-1.6,0.7s-0.7,1-0.7,1.6c0,0.7,0.3,1.2,0.7,1.6C256,39.4,256.6,39.5,257.2,39.5L257.2,39.5z
			 M255.9,35.9c0.4-0.4,0.9-0.6,1.4-0.6s1,0.2,1.4,0.6c0.4,0.4,0.6,0.9,0.6,1.4s-0.2,1.1-0.6,1.4c-0.4,0.4-0.9,0.6-1.4,0.6
			s-1-0.2-1.4-0.6s-0.6-0.9-0.6-1.4S255.4,36.2,255.9,35.9z"/>
		<path id="prefix__XMLID_41_" class="st0" d="M200.2,36.8h1.4v8.6h-1.4V36.8z"/>
		<path id="prefix__XMLID_44_" class="st0" d="M221.5,45.7c1.3,0,2.4-0.4,3.1-1.3c0.8-0.9,1.2-2,1.2-3.3s-0.3-2.5-1.1-3.3
			c-0.7-0.8-1.7-1.2-3-1.2s-2.4,0.3-3.1,1.1c-0.9,0.9-1.3,2-1.3,3.5c0,1.3,0.3,2.4,1.1,3.1C219.2,45.2,220.2,45.7,221.5,45.7z
			 M219.6,38.6c0.5-0.6,1.2-0.9,2-0.9c0.9,0,1.5,0.3,2,0.9c0.5,0.6,0.8,1.4,0.8,2.6c0,1-0.3,1.9-0.7,2.5c-0.5,0.6-1.2,0.9-2,0.9
			c-0.9,0-1.5-0.3-2.1-0.9c-0.5-0.6-0.8-1.4-0.8-2.4C218.8,40,219,39.2,219.6,38.6z"/>
		<path id="prefix__XMLID_47_" class="st0" d="M241.2,44.4c0.8-0.9,1.2-2,1.2-3.3s-0.3-2.5-1.1-3.3c-0.7-0.8-1.7-1.2-3-1.2
			s-2.4,0.3-3.1,1.1c-0.9,0.9-1.3,2-1.3,3.5c0,1.3,0.3,2.4,1.1,3.1c0.8,0.9,1.8,1.3,3.1,1.3C239.5,45.7,240.5,45.2,241.2,44.4z
			 M235.4,41.1c0-1.1,0.3-2,0.9-2.6c0.5-0.6,1.2-0.9,2-0.9c0.9,0,1.5,0.3,2,0.9c0.5,0.6,0.8,1.4,0.8,2.6c0,1-0.3,1.9-0.7,2.5
			c-0.5,0.6-1.2,0.9-2,0.9s-1.5-0.3-2.1-0.9C235.6,43,235.4,42.2,235.4,41.1z"/>
		<path id="prefix__XMLID_48_" class="st0" d="M221.1,66.6h11.4v-3.3h-11.4V52.7h12.3v-3.3h-16.1V81h16.8v-3.3h-13V66.6z"/>
		<path id="prefix__XMLID_49_" class="st0" d="M237.6,52.7h9.1V81h3.7V52.7h9.1v-3.3h-21.9V52.7z"/>
		<path id="prefix__XMLID_50_" class="st0" d="M177,76.5c-0.7,0-1.3,0.3-1.7,0.8c-0.5,0.5-0.7,1.1-0.7,1.8c0,0.7,0.3,1.3,0.7,1.8
			c0.5,0.5,1,0.8,1.7,0.8s1.3-0.3,1.8-0.8s0.8-1.1,0.8-1.8c0-0.7-0.3-1.3-0.8-1.8S177.8,76.5,177,76.5z"/>
		<path id="prefix__XMLID_51_" class="st0" d="M214.6,37.1c-0.4,0.3-0.8,0.9-0.9,1.4v-1.8h-1.4v8.6h1.4V41c0-1,0.3-1.8,0.7-2.4
			c0.3-0.5,0.9-0.8,1.4-0.8c0.4,0,0.9,0.1,1,0.3v-1.4c-0.2-0.1-0.4-0.1-0.9-0.1C215.5,36.6,215,36.8,214.6,37.1z"/>
		<path id="prefix__XMLID_52_" class="st0" d="M186.2,35h0.1l4.4,10.4h0.7l4.5-10.4l-0.1,10.4h1.5v-12h-1.8l-4.4,9.8l-4.3-9.8h-1.9
			v12h1.4L186.2,35L186.2,35z"/>
		<path id="prefix__XMLID_53_" class="st0" d="M206.7,76.1l-16.9-26.7h-4.9V81h3.8V53.9L205.9,81h4.5V49.4h-3.7L206.7,76.1
			L206.7,76.1z"/>
	</g>
</g>
</svg>
